<?xml version="1.0" standalone="no"?>
<!DOCTYPE svg PUBLIC "-//W3C//DTD SVG 20010904//EN"
 "http://www.w3.org/TR/2001/REC-SVG-20010904/DTD/svg10.dtd">
<svg version="1.0" xmlns="http://www.w3.org/2000/svg"
 width="300.000000pt" height="275.000000pt" viewBox="0 0 300.000000 275.000000"
 preserveAspectRatio="xMidYMid meet">
<metadata>
Created by potrace 1.10, written by Peter Selinger 2001-2011
</metadata>
<g transform="translate(0.000000,275.000000) scale(0.100000,-0.100000)"
fill="#0c0a6b" stroke="none">
<path d="M447 2570 c10 -17 32 -47 50 -68 18 -20 33 -40 33 -43 0 -6 18 -26
124 -138 87 -92 296 -276 492 -433 337 -271 612 -598 779 -928 31 -60 61 -110
66 -110 5 0 1 17 -9 37 -10 21 -36 74 -58 118 -50 103 -157 265 -255 386 -43
54 -80 102 -81 108 -9 32 -329 341 -463 447 -82 65 -172 139 -200 165 -27 26
-79 71 -115 100 -74 61 -209 196 -249 251 -37 49 -118 138 -126 138 -3 0 2
-14 12 -30z"/>
<path d="M657 1994 c-10 -16 77 -136 170 -234 28 -30 62 -67 75 -81 13 -15 61
-59 107 -99 46 -39 105 -91 130 -115 46 -43 70 -63 256 -210 304 -241 576
-571 761 -922 27 -51 53 -93 57 -93 5 0 6 3 4 8 -2 4 -27 54 -54 112 -28 58
-89 163 -136 234 -48 71 -84 133 -80 139 3 6 1 7 -5 4 -10 -7 -68 56 -115 126
-40 60 -295 323 -367 380 -36 28 -74 59 -85 69 -11 9 -60 49 -109 88 -49 38
-114 93 -145 122 -31 29 -78 71 -106 93 -65 52 -197 187 -245 250 -21 28 -52
64 -68 82 -17 18 -32 38 -34 45 -3 7 -7 8 -11 2z"/>
<path d="M920 1292 c0 -8 16 -31 89 -128 92 -122 321 -337 586 -549 174 -139
390 -344 463 -440 83 -109 144 -175 160 -175 11 0 4 12 -22 39 -21 22 -35 44
-31 50 3 6 3 10 -2 9 -9 -3 -48 39 -98 106 -62 84 -287 303 -425 414 -80 64
-183 150 -230 192 -47 42 -107 93 -133 114 -47 37 -158 149 -210 211 -150 178
-147 175 -147 157z"/>
<path d="M2306 757 c3 -10 9 -15 12 -12 3 3 0 11 -7 18 -10 9 -11 8 -5 -6z"/>
</g>
</svg>
